IKResults
version=1
nRows=19
nColumns=24
inDegrees=yes

Units are S.I. units (second, meters, Newtons, ...)
Angles are in degrees.

endheader
time	pelvis_tilt	pelvis_list	pelvis_rotation	pelvis_tx	pelvis_ty	pelvis_tz	hip_flexion_r	hip_adduction_r	hip_rotation_r	knee_angle_r	ankle_angle_r	subtalar_angle_r	mtp_angle_r	hip_flexion_l	hip_adduction_l	hip_rotation_l	knee_angle_l	ankle_angle_l	subtalar_angle_l	mtp_angle_l	lumbar_extension	lumbar_bending	lumbar_rotation
      3.32000000	     83.85040328	    113.62545167	    -83.85119472	     -0.76342068	      0.10075477	      1.00070569	     36.17225386	     -3.76749246	    -11.41924976	     -7.71147849	     -1.38450323	      6.73738336	      0.00000000	     35.33668298	     -0.03423158	    -14.42107305	     -6.87610981	     -4.26943144	      4.40653208	      0.00000000	    -42.79897285	     -4.04727385	     -0.34159887
      3.34000000	     83.73168602	    113.71856153	    -83.76614409	     -0.76413755	      0.10072468	      1.00042790	     36.35262459	     -3.80384533	    -11.34892371	     -7.76322793	     -1.41161693	      6.66247489	      0.00000000	     35.49768837	     -0.00294344	    -14.50451946	     -6.91660830	     -4.31365828	      4.41546157	      0.00000000	    -42.75395723	     -4.11086681	     -0.35195008
      3.36000000	     83.72408498	    113.70168946	    -83.76384782	     -0.76473885	      0.10072161	      1.00032535	     36.38600910	     -3.80243866	    -11.35268054	     -7.77652668	     -1.41994353	      6.65987272	      0.00000000	     35.53456364	     -0.00743854	    -14.51363839	     -6.93756874	     -4.33063339	      4.40863342	      0.00000000	    -42.81183189	     -4.11452091	     -0.33873801
      3.38000000	     83.72144179	    113.68453582	    -83.75592226	     -0.76532232	      0.10075295	      1.00022363	     36.42533781	     -3.81084270	    -11.34795949	     -7.80467874	     -1.43920243	      6.65772221	      0.00000000	     35.56236551	     -0.00345184	    -14.52362521	     -6.94091397	     -4.34838693	      4.40269509	      0.00000000	    -42.85820531	     -4.10877957	     -0.32840165
      3.40000000	     83.57332118	    113.73748804	    -83.65691263	     -0.76595603	      0.10074251	      1.00002543	     36.57481734	     -3.85709269	    -11.24571644	     -7.88322683	     -1.46935393	      6.62631730	      0.00000000	     35.63926566	      0.04467932	    -14.54576381	     -6.91188406	     -4.44776974	      4.27568352	      0.00000000	    -42.82539645	     -4.19133511	     -0.34021238
      3.42000000	     83.56935829	    113.70550723	    -83.64559212	     -0.76650235	      0.10078513	      0.99996064	     36.61666668	     -3.86792331	    -11.24297541	     -7.94977597	     -1.48521625	      6.61945960	      0.00000000	     35.64178399	      0.05036939	    -14.54125127	     -6.90528634	     -4.46301894	      4.27809726	      0.00000000	    -42.86727594	     -4.18669584	     -0.36361654
      3.44000000	     83.46348479	    113.67149187	    -83.52256804	     -0.76704221	      0.10086236	      0.99992792	     36.65188030	     -3.92327822	    -11.20082887	     -8.01651872	     -1.50129836	      6.57267956	      0.00000000	     35.62942019	      0.10863239	    -14.51998424	     -6.87952591	     -4.53449393	      4.22516959	      0.00000000	    -42.91602731	     -4.20358145	     -0.44569364
      3.46000000	     83.45265277	    113.63098266	    -83.50823489	     -0.76758248	      0.10091580	      0.99989707	     36.68555142	     -3.93213651	    -11.20371134	     -8.08674689	     -1.51909644	      6.55581440	      0.00000000	     35.62674551	      0.11433269	    -14.52097795	     -6.88265562	     -4.55495817	      4.22345534	      0.00000000	    -42.95544029	     -4.20396407	     -0.47595376
      3.48000000	     83.44955633	    113.59346605	    -83.49218251	     -0.76812254	      0.10099025	      0.99986696	     36.70672101	     -3.94550352	    -11.19498744	     -8.13169098	     -1.53548044	      6.55093104	      0.00000000	     35.63533567	      0.12056393	    -14.51143660	     -6.89856866	     -4.57166711	      4.22764755	      0.00000000	    -42.98535552	     -4.19237208	     -0.49587258
      3.50000000	     83.35635945	    113.54087790	    -83.36175009	     -0.76863652	      0.10109058	      0.99987348	     36.69233714	     -4.00632031	    -11.22139956	     -8.15282076	     -1.52269434	      6.53770716	      0.00000000	     35.61878571	      0.17720791	    -14.45130770	     -6.90485480	     -4.62749089	      4.18637165	      0.00000000	    -43.03529198	     -4.18815871	     -0.60311756
      3.52000000	     83.34888418	    113.50349481	    -83.35792971	     -0.76917197	      0.10111912	      0.99984031	     36.71055853	     -4.01116260	    -11.22669859	     -8.18745831	     -1.53823542	      6.54986101	      0.00000000	     35.62196938	      0.17317670	    -14.44912595	     -6.91546745	     -4.64266398	      4.18232265	      0.00000000	    -43.05745285	     -4.18583631	     -0.60791614
      3.54000000	     83.30051949	    113.43799983	    -83.29159561	     -0.76960360	      0.10121574	      0.99987257	     36.67684948	     -4.05138694	    -11.34045719	     -8.20298426	     -1.52363868	      6.68999648	      0.00000000	     35.56331398	      0.20696596	    -14.44053980	     -6.87220344	     -4.70780339	      4.13873015	      0.00000000	    -43.10859007	     -4.17113865	     -0.63592538
      3.56000000	     83.30441157	    113.40566962	    -83.28569009	     -0.77007816	      0.10126139	      0.99981736	     36.68931545	     -4.05886020	    -11.33448624	     -8.22838920	     -1.52787402	      6.69613634	      0.00000000	     35.55696992	      0.21060417	    -14.43654931	     -6.85944645	     -4.70763031	      4.14396141	      0.00000000	    -43.11261457	     -4.15366342	     -0.63673731
      3.58000000	     83.28589959	    113.27310442	    -83.21844725	     -0.77040177	      0.10136713	      0.99995904	     36.56218752	     -4.08850907	    -11.43516847	     -8.22470179	     -1.48901900	      6.76528402	      0.00000000	     35.42055563	      0.23880108	    -14.42693822	     -6.80688763	     -4.74850248	      4.18817129	      0.00000000	    -43.22531565	     -4.10759191	     -0.66551247
      3.60000000	     83.27678428	    113.21865827	    -83.21276081	     -0.77082765	      0.10145105	      0.99995879	     36.55720550	     -4.09316196	    -11.44312510	     -8.26385668	     -1.51571248	      6.76339479	      0.00000000	     35.38595493	      0.24355919	    -14.42075736	     -6.79264549	     -4.74182743	      4.18709908	      0.00000000	    -43.24319181	     -4.10135927	     -0.66945467
      3.62000000	     83.20933505	    113.04150402	    -83.10235610	     -0.77105628	      0.10162394	      1.00021792	     36.35332541	     -4.12876055	    -11.49537131	     -8.21071926	     -1.53689863	      6.75259648	      0.00000000	     35.18820573	      0.29454624	    -14.39342578	     -6.72934284	     -4.79107655	      4.16585356	      0.00000000	    -43.39519395	     -4.06653293	     -0.70834047
      3.64000000	     83.13016723	    112.89086547	    -83.02710468	     -0.77134343	      0.10177074	      1.00042070	     36.21490008	     -4.15393734	    -11.53724634	     -8.21067184	     -1.55322831	      6.80715035	      0.00000000	     35.02696518	      0.32660221	    -14.37479133	     -6.68986834	     -4.80436656	      4.11533116	      0.00000000	    -43.51137324	     -4.06655174	     -0.72301053
      3.66000000	     83.10839661	    112.83252121	    -82.98070513	     -0.77169351	      0.10189363	      1.00047962	     36.16746374	     -4.17530929	    -11.54688044	     -8.19470562	     -1.57475525	      6.81256214	      0.00000000	     34.99247543	      0.34712332	    -14.34123973	     -6.68808591	     -4.86230804	      4.13170669	      0.00000000	    -43.51541642	     -4.04703687	     -0.75888607
      3.68000000	     83.06088271	    112.72071127	    -82.88096706	     -0.77192060	      0.10207718	      1.00064423	     36.03769209	     -4.21950403	    -11.61400912	     -8.15185627	     -1.60681780	      6.81549339	      0.00000000	     34.88025949	      0.39813566	    -14.29815630	     -6.65865835	     -4.89230194	      4.09056058	      0.00000000	    -43.56826060	     -4.00498344	     -0.83850958
